<svg xmlns="http://www.w3.org/2000/svg" viewBox="0 0 13 8" width="13" height="8">
	<defs>
		<clipPath clipPathUnits="userSpaceOnUse" id="cp1">
			<path d="M0 0L13 0L13 8L0 8Z" />
		</clipPath>
	</defs>
	<style>
		tspan { white-space:pre }
		.shp0 { fill: #ffffff } 
	</style>
	<g id="Page 1" clip-path="url(#cp1)">
		<path id="Path 1" class="shp0" d="M12.72 2.13C12.32 2.33 7.4 4.78 7.15 4.91C6.91 5.03 6.74 5.04 6.5 5.04C6.26 5.04 6.09 5.03 5.85 4.91C5.6 4.78 0.68 2.33 0.28 2.13C0 1.99 0 2.15 0 2.28L0 7.34C0 7.63 0.4 8 0.72 8L12.28 8C12.6 8 13 7.63 13 7.34L13 2.28C13 2.15 13 1.99 12.72 2.13ZM0.43 0.75C0.78 0.93 5.66 3.43 5.85 3.53C6.03 3.62 6.26 3.67 6.5 3.67C6.74 3.67 6.97 3.62 7.15 3.53C7.34 3.43 12.22 0.93 12.57 0.75C12.92 0.57 13.26 0 12.61 0L0.39 0C-0.26 0 0.08 0.57 0.43 0.75Z" />
	</g>
</svg>